<svg width="295" height="298" viewBox="0 0 295 298" fill="none" xmlns="http://www.w3.org/2000/svg">
<path d="M266.539 199.859C260.75 213.536 252.552 226.16 242.64 237.205C240.76 239.336 238.8 241.403 236.702 243.315C237.981 239.72 238.641 235.911 239.186 232.139C239.52 228.685 239.69 225.107 238.656 221.749C237.357 217.568 234.547 213.995 231.225 211.215C228.28 208.705 224.892 206.785 221.479 204.997C212.493 200.552 203.359 196.424 194.16 192.447C193.005 191.895 191.688 191.61 190.689 190.789C188.673 188.579 186.652 186.363 184.665 184.127C183.741 182.955 182.263 182.552 180.972 181.943C178.617 180.839 176.241 179.773 174.012 178.422C175.396 181.775 176.426 185.322 176.5 188.975C176.752 192.987 176.03 196.981 176.071 200.994C176.066 204.563 176.078 208.131 176.076 211.703C176.042 216.361 176.229 221.039 175.651 225.675C174.391 235.65 172.063 245.451 169.454 255.147C167.241 263.523 164.498 271.746 161.868 279.995C160.442 279.942 159.019 279.937 157.591 279.959C156.765 268.563 156.765 257.101 155.244 245.763C154.754 241.895 153.46 238.201 152.594 234.414C151.632 230.269 150.415 226.062 150.784 221.763C153.112 218.809 155.568 215.941 157.96 213.032C155.436 208.388 152.776 203.816 150.352 199.115C147.736 199.11 145.116 199.155 142.503 199.081C139.857 203.667 137.259 208.285 134.626 212.879C137.055 215.881 139.538 218.835 141.981 221.833C142.13 224.372 141.656 226.887 141.193 229.374C140.606 232.578 139.769 235.727 139.01 238.892C138.55 240.738 137.907 242.547 137.71 244.451C137.165 249.078 136.714 253.717 136.539 258.375C136.267 265.563 135.728 272.744 135.505 279.937C133.932 279.937 132.359 279.949 130.79 279.913C126.736 267.39 122.965 254.759 120.102 241.904C118.523 234.623 117.005 227.274 116.791 219.8C116.746 213.527 116.804 207.26 116.791 200.989C116.83 196.119 115.844 191.243 116.619 186.392C116.943 183.692 117.916 181.131 118.876 178.607C115.889 180.287 112.721 181.607 109.611 183.03C108.444 183.51 107.818 184.676 106.972 185.543C105.234 187.381 103.632 189.347 101.91 191.192C95.9593 193.724 90.0447 196.357 84.159 199.045C78.7307 201.548 73.2731 204.011 68.0329 206.891C62.906 209.831 57.8473 213.536 55.1526 218.955C52.7857 223.508 52.8798 228.87 53.7553 233.802C54.206 236.706 54.903 239.569 55.8207 242.365C48.4307 234.918 41.9871 226.532 36.5003 217.59C29.2206 205.765 23.8796 192.762 20.6012 179.271C16.9273 164.461 16.1166 149.01 17.7284 133.861C21.0423 101.737 36.627 70.9666 60.818 49.5346C76.4996 35.641 95.5993 25.5778 115.996 20.7274C144.211 14.0434 174.681 16.7746 201.06 28.9114C212.563 34.297 223.348 41.2426 232.848 49.6786C250.8 65.497 264.004 86.4706 271.113 109.28C274.264 119.231 276.079 129.582 276.712 139.995C278.138 160.386 274.483 181.045 266.539 199.859ZM292.807 129.291C291.386 118.304 288.818 107.456 285.028 97.045C277.663 76.453 265.684 57.5314 250.152 42.133C230.474 22.7434 205.192 9.10901 178.168 3.33942C166.399 0.853027 154.346 -0.291779 142.314 0.0634155C117.55 0.817017 92.9891 7.8898 71.6876 20.5618C54.8641 30.433 40.2294 43.9066 28.6791 59.5978C20.559 70.597 14.1126 82.813 9.39418 95.6386C5.20474 106.89 2.3833 118.645 1.0153 130.571C-0.612859 145.148 -0.34694 159.98 2.27962 174.423C4.79914 188.773 9.42345 202.746 15.9121 215.787C26.918 237.815 43.5212 256.983 63.5675 271.254C82.2102 284.435 103.988 293.228 126.629 296.312C136.296 297.579 146.092 298.136 155.827 297.404C170.589 296.459 185.227 293.247 199.005 287.862C223.588 278.202 245.515 261.87 261.76 241.043C280.545 217.17 291.895 187.53 293.81 157.211C294.465 147.903 293.988 138.539 292.807 129.291Z" fill="#100F0D"/>
<path d="M178.876 108.032C177.417 107.507 175.84 107.711 174.343 107.427C173.702 107.031 173.198 106.41 172.478 106.158C171.911 106.038 171.323 106.069 170.75 106.059C165.023 106.086 159.292 106.062 153.563 106.043C151.838 105.738 150.796 107.315 149.728 108.366C147.328 108.385 144.928 108.351 142.528 108.395C141.636 107.435 140.787 106.004 139.295 106.088C133.02 106.076 126.743 106.028 120.468 106.069C119.482 106.021 118.85 106.907 118.104 107.403C116.46 107.37 114.806 107.567 113.253 108.121C112.828 105.975 112.332 103.434 113.882 101.605C115.169 100.076 116.872 98.4322 116.512 96.2314C116.103 93.6682 115.909 91.0642 116.181 88.4818C116.651 85.0594 117.692 81.7306 119.142 78.601C122.229 79.5634 125.387 78.3442 128.218 77.1466C131.091 75.8962 134.156 74.7778 137.343 74.9938C141.867 75.2674 146.122 77.0458 150.177 78.9442C154.192 80.7946 158.114 82.849 162.134 84.6922C166.154 86.6098 170.944 87.0898 175.154 85.4986C175.66 87.865 175.799 90.313 175.54 92.7226C175.466 94.5586 175 96.5122 175.802 98.257C176.503 100.04 178.315 101.084 178.975 102.891C179.625 104.552 179.03 106.333 178.876 108.032ZM170.073 120.872C167.128 124.628 161.462 125.562 157.322 123.325C153.611 121.355 151.331 116.977 151.931 112.808C151.991 111.865 152.486 111.061 153.095 110.365C157.135 110.082 161.188 110.211 165.235 110.166C167.248 110.197 169.281 110.072 171.278 110.346C173.651 113.483 172.423 118.057 170.073 120.872ZM140.492 116.063C139.597 121.28 134.201 125.367 128.905 124.429C123.951 123.999 119.92 119.331 119.982 114.399C119.978 113.005 120.157 111.351 121.279 110.396C125.102 110.036 128.967 110.353 132.803 110.185C134.538 110.123 136.276 110.142 138.011 110.156C138.608 110.178 139.351 110.175 139.681 110.778C140.703 112.311 140.852 114.294 140.492 116.063ZM181.142 111.414C182.663 107.444 183.626 103.275 184.466 99.1138C185.62 92.8354 185.025 86.0674 181.987 80.3866C184.091 78.2218 186.045 75.7786 187.101 72.9154C187.298 72.3802 186.705 72.1186 186.393 71.8282C180.578 67.7458 176.459 61.8322 171.273 57.0658C168.518 54.5218 165.016 52.8586 161.342 52.1842C156.715 51.4282 151.965 51.5074 147.405 50.3146C144.062 49.525 140.794 48.3346 137.353 48.0514C132.382 47.6386 127.44 49.2994 123.273 51.925C118.211 55.0882 114.683 60.445 113.454 66.2482C112.916 69.0898 112.967 72.253 114.573 74.761C109.692 78.5218 106.962 84.637 106.728 90.7306C106.381 97.9474 108.836 104.867 111.015 111.63C110.098 111.323 109.148 110.941 108.165 111.107C106.008 111.359 104.381 113.317 104.157 115.412C103.956 117.373 104.439 119.331 105.062 121.177C106.381 124.993 108.139 128.663 110.234 132.116C110.951 133.208 111.703 134.483 113.055 134.85C114.018 135.155 115.451 135.03 115.76 133.883C116.009 131.9 115.494 129.93 115.186 127.983C114.796 125.545 112.89 123.668 112.604 121.201C112.329 118.652 112.416 116.072 112.578 113.521C114.129 114.39 115.792 115.069 117.608 114.997C117.897 119.089 120.261 122.975 123.811 125.039C129.071 128.259 136.666 126.899 140.304 121.866C142.512 119.099 143.141 115.467 143.073 112.014C143.88 111.495 144.866 111.579 145.781 111.579C147.023 111.635 148.281 111.63 149.5 111.913C149.491 114.539 149.678 117.26 150.859 119.653C151.763 121.463 153.021 123.135 154.684 124.316C159.345 127.863 166.509 127.539 170.752 123.464C173.191 121.326 174.443 118.182 174.849 115.023C176.419 115.019 177.971 114.649 179.265 113.732C179.433 116.123 179.464 118.527 179.301 120.918C179.073 123.479 177.059 125.439 176.731 127.971C176.481 129.601 176.236 131.243 176.14 132.891C176.085 133.671 176.347 134.679 177.203 134.91C178.384 135.133 179.627 134.66 180.391 133.736C181.497 132.414 182.313 130.883 183.105 129.361C184.747 126.207 186.263 122.967 187.25 119.543C187.835 117.692 188.044 115.626 187.25 113.804C186.29 111.515 183.407 110.382 181.142 111.414Z" fill="#100F0D"/>
<path d="M61.8847 167.495C61.8784 146.024 61.8035 124.547 61.9528 103.083C65.0109 109.772 67.6927 116.624 70.6144 123.375C76.7656 138.092 82.9106 152.811 89.1434 167.49C80.057 167.459 70.9711 167.425 61.8847 167.495ZM58.6744 120.901C58.6907 136.424 58.6288 151.945 58.7003 167.468C49.8314 167.497 40.9595 167.406 32.0906 167.487C40.4824 147.524 48.4015 127.364 56.7904 107.403C57.4423 105.858 58.0615 104.303 58.6615 102.74C58.7848 108.786 58.6418 114.848 58.6744 120.901ZM92.5159 167.516C87.989 156.474 83.2999 145.501 78.7245 134.48C73.4224 121.777 68.1237 109.069 62.692 96.4234C62.4035 95.6243 62.332 94.7746 62.2802 93.9346C64.3461 93.289 66.0938 91.6546 66.5411 89.4922C67.4752 86.1466 64.8808 82.4362 61.4435 82.0738C57.9904 81.3562 54.436 84.301 54.3842 87.7954C54.1346 90.4955 55.9341 93.1738 58.5381 93.9322C58.5741 95.9194 57.4327 97.597 56.7256 99.3706C52.5424 109.347 48.4499 119.363 44.3738 129.383C39.2603 142.095 33.9323 154.724 28.8607 167.451C26.1885 167.451 23.5135 167.394 20.8413 167.504C21.3765 169.815 23.2442 171.457 24.8459 173.077C29.477 177.258 35.1741 180.097 41.0661 182.041C47.9474 184.261 55.2175 185.166 62.4391 184.959C70.6984 184.801 78.9775 183.085 86.4779 179.574C90.6088 177.613 94.5717 175.136 97.7464 171.81C98.8389 170.519 100.133 169.218 100.431 167.48C97.7915 167.43 95.152 167.487 92.5159 167.516Z" fill="#100F0D"/>
<path d="M230.721 167.461C230.894 146.015 230.657 124.559 230.861 103.115C233.952 109.602 236.568 116.298 239.376 122.905C245.515 137.761 251.599 152.636 257.753 167.485C248.741 167.454 239.733 167.48 230.721 167.461ZM227.681 167.471C219.185 167.473 210.684 167.396 202.188 167.485C207.588 154.4 212.839 141.253 218.172 128.142C220.74 121.667 223.49 115.263 226.027 108.774C226.521 107.588 226.987 106.388 227.544 105.229C227.762 125.975 227.685 146.723 227.681 167.471ZM261.132 167.478C251.849 144.599 242.395 121.791 232.903 98.9962C232.181 97.381 231.264 95.7826 231.283 93.9586C232.334 93.4186 233.517 92.953 234.223 91.9498C235.433 90.3562 235.884 88.1794 235.257 86.2594C234.473 83.8042 232.01 82.021 229.445 81.985C227.203 81.8794 224.978 83.1946 223.927 85.1626C222 88.4194 223.997 93.1306 227.721 93.925C227.736 95.0122 227.791 96.1426 227.376 97.1746C219.482 116.509 211.697 135.889 203.853 155.245C202.26 159.332 200.405 163.326 198.962 167.468C196.202 167.533 193.442 167.413 190.685 167.523C190.965 169.031 191.906 170.279 192.869 171.428C195.518 174.462 198.885 176.785 202.425 178.659C208.8 181.988 215.853 183.925 222.993 184.645C233.88 185.691 245.174 184.28 255.11 179.569C259.752 177.303 264.295 174.452 267.477 170.312C268.14 169.477 268.682 168.534 268.853 167.471C266.277 167.423 263.705 167.48 261.132 167.478Z" fill="#100F0D"/>
<path d="M154.536 145.991C155.5 145.94 156.499 146.154 157.44 145.88C158.174 145.599 157.874 144.745 157.838 144.164C156.309 143.987 154.771 144.097 153.237 144.071C147.192 144.09 141.147 144.066 135.103 144.097C133.812 143.948 133.877 146.154 135.125 146.043C141.595 145.991 148.068 146.034 154.536 145.991Z" fill="#100F0D"/>
<path d="M170.88 152.9C167.129 156.579 163.502 160.379 159.761 164.07C158.717 165.195 157.461 166.225 155.894 166.472C151.706 167.18 147.429 167.223 143.19 167.147C139.83 167.017 136.326 166.861 133.287 165.265C135.32 167.912 137.733 170.238 140.09 172.592C141.741 174.291 144.017 175.487 146.427 175.46C150.425 175.479 154.423 175.451 158.424 175.441C162.583 175.47 166.733 175.172 170.894 175.201C170.913 167.766 170.863 160.333 170.88 152.9Z" fill="#100F0D"/>
</svg>
