<svg width="24" height="25" viewBox="0 0 24 25" fill="none" xmlns="http://www.w3.org/2000/svg">
<path d="M13.2007 6.14734H5.43094C3.72224 6.14734 2.31982 7.54933 2.31982 9.2575V20.6104C2.31982 22.0607 3.35955 22.6731 4.63301 21.9721L8.56623 19.7885C8.98534 19.5549 9.66237 19.5549 10.0734 19.7885L14.0066 21.9721C15.2801 22.6811 16.3198 22.0688 16.3198 20.6104V9.2575C16.3118 7.54933 14.9174 6.14734 13.2007 6.14734ZM12.2335 11.8842L9.00952 15.1072C8.88862 15.228 8.73548 15.2844 8.58235 15.2844C8.42921 15.2844 8.27607 15.228 8.15517 15.1072L6.94619 13.8986C6.71246 13.6649 6.71246 13.2781 6.94619 13.0445C7.17993 12.8108 7.5668 12.8108 7.80054 13.0445L8.58235 13.826L11.3791 11.0301C11.6129 10.7965 11.9997 10.7965 12.2335 11.0301C12.4672 11.2638 12.4672 11.6505 12.2335 11.8842Z" fill="#292D32"/>
<path d="M22.0001 5.3473V16.7073C22.0001 18.1573 20.9601 18.7673 19.6901 18.0673L17.7601 16.9873C17.6001 16.8973 17.5001 16.7273 17.5001 16.5473V9.2273C17.5001 6.6873 15.4301 4.6173 12.8901 4.6173H8.82008C8.45008 4.6173 8.19008 4.2273 8.36008 3.9073C8.88008 2.9173 9.92008 2.2373 11.1101 2.2373H18.8901C20.6001 2.2373 22.0001 3.6373 22.0001 5.3473Z" fill="#292D32"/>
</svg>
