<svg xmlns="http://www.w3.org/2000/svg" width="100" height="100" viewBox="0 0 48 48">
    <g fill="black"> <!-- Makes the shape solid -->
        <path fill="black" d="M39,8h-5v5c0,0.6-0.4,1-1,1s-1-0.4-1-1V8H16v5c0,0.6-0.4,1-1,1s-1-0.4-1-1V8H9c-1.7,0-3,1.3-3,3v25c0,2.2,1.8,4,4,4h28c2.2,0,4-1.8,4-4V11C42,9.3,40.7,8,39,8z"/>
    </g>
    <g fill="white"> <!-- Makes the circles cutouts -->
        <path d="M37,27.5c0-1.9-1.6-3.5-3.5-3.5S30,25.6,30,27.5s1.6,3.5,3.5,3.5l0,0l0,0C35.4,31,37,29.5,37,27.5C37,27.5,37,27.5,37,27.5L37,27.5z M33.5,29c-0.8,0-1.5-0.6-1.5-1.5c0-0.8,0.6-1.5,1.5-1.5c0.8,0,1.5,0.6,1.5,1.5c0,0,0,0,0,0C35,28.3,34.3,29,33.5,29L33.5,29L33.5,29z"/>
        <circle cx="15.5" cy="21.5" r="1.5"/>
        <circle cx="21.5" cy="21.5" r="1.5"/>
        <circle cx="27.5" cy="21.5" r="1.5"/>
        <circle cx="33.5" cy="21.5" r="1.5"/>
        <circle cx="15.5" cy="27.5" r="1.5"/>
        <circle cx="21.5" cy="27.5" r="1.5"/>
        <circle cx="27.5" cy="27.5" r="1.5"/>
        <circle cx="15.5" cy="33.5" r="1.5"/>
        <circle cx="21.5" cy="33.5" r="1.5"/>
        <circle cx="27.5" cy="33.5" r="1.5"/>
        <circle cx="33.5" cy="33.5" r="1.5"/>
    </g>
</svg>
