<svg width="289" height="78" viewBox="0 0 289 78" fill="none" xmlns="http://www.w3.org/2000/svg">
<path d="M0.583984 48.104C0.583984 44.776 1.30398 41.816 2.74398 39.224C4.18398 36.6 6.18398 34.568 8.74399 33.128C11.336 31.656 14.264 30.92 17.528 30.92C21.528 30.92 24.952 31.976 27.8 34.088C30.648 36.2 32.552 39.08 33.512 42.728H24.488C23.816 41.32 22.856 40.248 21.608 39.512C20.392 38.776 19 38.408 17.432 38.408C14.904 38.408 12.856 39.288 11.288 41.048C9.71999 42.808 8.93599 45.16 8.93599 48.104C8.93599 51.048 9.71999 53.4 11.288 55.16C12.856 56.92 14.904 57.8 17.432 57.8C19 57.8 20.392 57.432 21.608 56.696C22.856 55.96 23.816 54.888 24.488 53.48H33.512C32.552 57.128 30.648 60.008 27.8 62.12C24.952 64.2 21.528 65.24 17.528 65.24C14.264 65.24 11.336 64.52 8.74399 63.08C6.18398 61.608 4.18398 59.576 2.74398 56.984C1.30398 54.392 0.583984 51.432 0.583984 48.104Z" fill="black"/>
<path d="M36.4265 51.56C36.4265 48.808 36.9385 46.392 37.9625 44.312C39.0185 42.232 40.4425 40.632 42.2345 39.512C44.0265 38.392 46.0265 37.832 48.2345 37.832C50.1225 37.832 51.7705 38.216 53.1785 38.984C54.6185 39.752 55.7225 40.76 56.4905 42.008V38.216H64.6985V65H56.4905V61.208C55.6905 62.456 54.5705 63.464 53.1305 64.232C51.7225 65 50.0745 65.384 48.1865 65.384C46.0105 65.384 44.0265 64.824 42.2345 63.704C40.4425 62.552 39.0185 60.936 37.9625 58.856C36.9385 56.744 36.4265 54.312 36.4265 51.56ZM56.4905 51.608C56.4905 49.56 55.9145 47.944 54.7625 46.76C53.6425 45.576 52.2665 44.984 50.6345 44.984C49.0025 44.984 47.6105 45.576 46.4585 46.76C45.3385 47.912 44.7785 49.512 44.7785 51.56C44.7785 53.608 45.3385 55.24 46.4585 56.456C47.6105 57.64 49.0025 58.232 50.6345 58.232C52.2665 58.232 53.6425 57.64 54.7625 56.456C55.9145 55.272 56.4905 53.656 56.4905 51.608Z" fill="black"/>
<path d="M81.0526 65.384C78.7166 65.384 76.6366 64.984 74.8126 64.184C72.9886 63.384 71.5486 62.296 70.4926 60.92C69.4366 59.512 68.8446 57.944 68.7166 56.216H76.8286C76.9246 57.144 77.3566 57.896 78.1246 58.472C78.8926 59.048 79.8366 59.336 80.9566 59.336C81.9806 59.336 82.7646 59.144 83.3086 58.76C83.8846 58.344 84.1726 57.816 84.1726 57.176C84.1726 56.408 83.7726 55.848 82.9726 55.496C82.1726 55.112 80.8766 54.696 79.0846 54.248C77.1646 53.8 75.5646 53.336 74.2846 52.856C73.0046 52.344 71.9006 51.56 70.9726 50.504C70.0446 49.416 69.5806 47.96 69.5806 46.136C69.5806 44.6 69.9966 43.208 70.8286 41.96C71.6926 40.68 72.9406 39.672 74.5726 38.936C76.2366 38.2 78.2046 37.832 80.4766 37.832C83.8366 37.832 86.4766 38.664 88.3966 40.328C90.3486 41.992 91.4686 44.2 91.7566 46.952H84.1726C84.0446 46.024 83.6286 45.288 82.9246 44.744C82.2526 44.2 81.3566 43.928 80.2366 43.928C79.2766 43.928 78.5406 44.12 78.0286 44.504C77.5166 44.856 77.2606 45.352 77.2606 45.992C77.2606 46.76 77.6606 47.336 78.4606 47.72C79.2926 48.104 80.5726 48.488 82.3006 48.872C84.2846 49.384 85.9006 49.896 87.1486 50.408C88.3966 50.888 89.4846 51.688 90.4126 52.808C91.3726 53.896 91.8686 55.368 91.9006 57.224C91.9006 58.792 91.4526 60.2 90.5566 61.448C89.6926 62.664 88.4286 63.624 86.7646 64.328C85.1326 65.032 83.2286 65.384 81.0526 65.384Z" fill="black"/>
<path d="M121.69 51.176C121.69 51.944 121.642 52.744 121.546 53.576H102.97C103.098 55.24 103.626 56.52 104.554 57.416C105.514 58.28 106.682 58.712 108.058 58.712C110.106 58.712 111.53 57.848 112.33 56.12H121.066C120.618 57.88 119.802 59.464 118.618 60.872C117.466 62.28 116.01 63.384 114.25 64.184C112.49 64.984 110.522 65.384 108.346 65.384C105.722 65.384 103.386 64.824 101.338 63.704C99.2902 62.584 97.6902 60.984 96.5382 58.904C95.3862 56.824 94.8102 54.392 94.8102 51.608C94.8102 48.824 95.3702 46.392 96.4902 44.312C97.6422 42.232 99.2422 40.632 101.29 39.512C103.338 38.392 105.69 37.832 108.346 37.832C110.938 37.832 113.242 38.376 115.258 39.464C117.274 40.552 118.842 42.104 119.962 44.12C121.114 46.136 121.69 48.488 121.69 51.176ZM113.29 49.016C113.29 47.608 112.81 46.488 111.85 45.656C110.89 44.824 109.69 44.408 108.25 44.408C106.874 44.408 105.706 44.808 104.746 45.608C103.818 46.408 103.242 47.544 103.018 49.016H113.29Z" fill="black"/>
<path d="M137.732 65.336C135.268 65.336 133.06 64.936 131.108 64.136C129.156 63.336 127.588 62.152 126.404 60.584C125.252 59.016 124.644 57.128 124.58 54.92H133.316C133.444 56.168 133.876 57.128 134.612 57.8C135.348 58.44 136.308 58.76 137.492 58.76C138.708 58.76 139.668 58.488 140.372 57.944C141.076 57.368 141.428 56.584 141.428 55.592C141.428 54.76 141.14 54.072 140.564 53.528C140.02 52.984 139.332 52.536 138.5 52.184C137.7 51.832 136.548 51.432 135.044 50.984C132.868 50.312 131.092 49.64 129.716 48.968C128.34 48.296 127.156 47.304 126.164 45.992C125.172 44.68 124.676 42.968 124.676 40.856C124.676 37.72 125.812 35.272 128.084 33.512C130.356 31.72 133.316 30.824 136.964 30.824C140.676 30.824 143.668 31.72 145.94 33.512C148.212 35.272 149.428 37.736 149.588 40.904H140.708C140.644 39.816 140.244 38.968 139.508 38.36C138.772 37.72 137.828 37.4 136.676 37.4C135.684 37.4 134.884 37.672 134.276 38.216C133.668 38.728 133.364 39.48 133.364 40.472C133.364 41.56 133.876 42.408 134.9 43.016C135.924 43.624 137.524 44.28 139.7 44.984C141.876 45.72 143.636 46.424 144.98 47.096C146.356 47.768 147.54 48.744 148.532 50.024C149.524 51.304 150.02 52.952 150.02 54.968C150.02 56.888 149.524 58.632 148.532 60.2C147.572 61.768 146.164 63.016 144.308 63.944C142.452 64.872 140.26 65.336 137.732 65.336Z" fill="black"/>
<path d="M181.952 38.216L165.152 77.72H156.32L162.464 64.088L151.568 38.216H160.736L166.928 54.968L173.072 38.216H181.952Z" fill="black"/>
<path d="M200.76 37.928C203.896 37.928 206.392 38.952 208.248 41C210.136 43.016 211.08 45.8 211.08 49.352V65H202.92V50.456C202.92 48.664 202.456 47.272 201.528 46.28C200.6 45.288 199.352 44.792 197.784 44.792C196.216 44.792 194.968 45.288 194.04 46.28C193.112 47.272 192.648 48.664 192.648 50.456V65H184.44V38.216H192.648V41.768C193.48 40.584 194.6 39.656 196.008 38.984C197.416 38.28 199 37.928 200.76 37.928Z" fill="black"/>
<path d="M214.671 51.608C214.671 48.824 215.231 46.392 216.351 44.312C217.503 42.232 219.087 40.632 221.103 39.512C223.151 38.392 225.487 37.832 228.111 37.832C231.471 37.832 234.271 38.712 236.511 40.472C238.783 42.232 240.271 44.712 240.975 47.912H232.239C231.503 45.864 230.079 44.84 227.967 44.84C226.463 44.84 225.263 45.432 224.367 46.616C223.471 47.768 223.023 49.432 223.023 51.608C223.023 53.784 223.471 55.464 224.367 56.648C225.263 57.8 226.463 58.376 227.967 58.376C230.079 58.376 231.503 57.352 232.239 55.304H240.975C240.271 58.44 238.783 60.904 236.511 62.696C234.239 64.488 231.439 65.384 228.111 65.384C225.487 65.384 223.151 64.824 221.103 63.704C219.087 62.584 217.503 60.984 216.351 58.904C215.231 56.824 214.671 54.392 214.671 51.608Z" fill="black"/>
<path d="M266 0L266.823 3.36707C268.109 8.62855 268.752 11.2593 270.123 13.3821C271.336 15.2593 272.953 16.8418 274.855 18.0139C277.007 19.3395 279.651 19.926 284.939 21.0991L289 22L284.939 22.9009C279.651 24.074 277.007 24.6605 274.855 25.9861C272.953 27.1582 271.336 28.7407 270.123 30.6179C268.752 32.7407 268.109 35.3714 266.823 40.6329L266 44L265.177 40.6329C263.891 35.3714 263.248 32.7407 261.877 30.6179C260.664 28.7407 259.047 27.1582 257.145 25.9861C254.993 24.6605 252.349 24.074 247.061 22.9009L243 22L247.061 21.0991C252.349 19.926 254.993 19.3395 257.145 18.0139C259.047 16.8418 260.664 15.2593 261.877 13.3821C263.248 11.2593 263.891 8.62855 265.177 3.36707L266 0Z" fill="black"/>
</svg>
