<svg width="24" height="25" viewBox="0 0 24 25" fill="none" xmlns="http://www.w3.org/2000/svg">
<path d="M12 2.2373C6.49 2.2373 2 6.7273 2 12.2373C2 17.7473 6.49 22.2373 12 22.2373C17.51 22.2373 22 17.7473 22 12.2373C22 6.7273 17.51 2.2373 12 2.2373ZM16.35 15.8073C16.21 16.0473 15.96 16.1773 15.7 16.1773C15.57 16.1773 15.44 16.1473 15.32 16.0673L12.22 14.2173C11.45 13.7573 10.88 12.7473 10.88 11.8573V7.7573C10.88 7.3473 11.22 7.0073 11.63 7.0073C12.04 7.0073 12.38 7.3473 12.38 7.7573V11.8573C12.38 12.2173 12.68 12.7473 12.99 12.9273L16.09 14.7773C16.45 14.9873 16.57 15.4473 16.35 15.8073Z" fill="#292D32"/>
</svg>
