<svg width="24" height="25" viewBox="0 0 24 25" fill="none" xmlns="http://www.w3.org/2000/svg">
<path d="M10.75 5.50571L6.31997 3.31571C3.92997 2.14571 1.96997 3.33571 1.96997 5.95571V20.7957C1.96997 21.9357 2.91997 22.8657 4.07997 22.8657H11.5C12.05 22.8657 12.5 22.4157 12.5 21.8657V8.27571C12.5 7.22571 11.71 5.97571 10.75 5.50571ZM8.96997 14.6157H5.49997C5.08997 14.6157 4.74997 14.2757 4.74997 13.8657C4.74997 13.4557 5.08997 13.1157 5.49997 13.1157H8.96997C9.37997 13.1157 9.71997 13.4557 9.71997 13.8657C9.71997 14.2757 9.38997 14.6157 8.96997 14.6157ZM8.96997 10.6157H5.49997C5.08997 10.6157 4.74997 10.2757 4.74997 9.86571C4.74997 9.45571 5.08997 9.11571 5.49997 9.11571H8.96997C9.37997 9.11571 9.71997 9.45571 9.71997 9.86571C9.71997 10.2757 9.38997 10.6157 8.96997 10.6157Z" fill="#292D32"/>
<path d="M22 18.9058V20.3658C22 21.7458 20.88 22.8658 19.5 22.8658H14.97C14.43 22.8658 14 22.4358 14 21.8958V19.7358C15.07 19.8658 16.2 19.5558 17.01 18.9058C17.69 19.4558 18.56 19.7858 19.51 19.7858C20.44 19.7858 21.31 19.4558 22 18.9058Z" fill="#292D32"/>
<path d="M22 15.9157V15.9257C21.92 17.2357 20.85 18.2857 19.51 18.2857C18.12 18.2857 17.01 17.1557 17.01 15.7857C17.01 17.3157 15.6 18.5457 14 18.2357V12.8657C14 12.2257 14.59 11.7457 15.22 11.8857L17.01 12.2857L17.49 12.3957L19.53 12.8557C20.02 12.9557 20.47 13.1257 20.86 13.3757C20.86 13.3857 20.87 13.3857 20.87 13.3857C20.97 13.4557 21.07 13.5357 21.16 13.6257C21.62 14.0857 21.92 14.7557 21.99 15.7357C21.99 15.7957 22 15.8557 22 15.9157Z" fill="#292D32"/>
</svg>
