<svg width="24" height="25" viewBox="0 0 24 25" fill="none" xmlns="http://www.w3.org/2000/svg">
<path d="M17.53 7.83726C17.46 7.82726 17.39 7.82726 17.32 7.83726C15.77 7.78726 14.54 6.51726 14.54 4.95726C14.54 3.36726 15.83 2.06726 17.43 2.06726C19.02 2.06726 20.32 3.35726 20.32 4.95726C20.31 6.51726 19.08 7.78726 17.53 7.83726Z" fill="#292D32"/>
<path d="M20.7901 14.7673C19.6701 15.5173 18.1001 15.7973 16.6501 15.6073C17.0301 14.7873 17.2301 13.8773 17.2401 12.9173C17.2401 11.9173 17.0201 10.9673 16.6001 10.1373C18.0801 9.9373 19.6501 10.2173 20.7801 10.9673C22.3601 12.0073 22.3601 13.7173 20.7901 14.7673Z" fill="#292D32"/>
<path d="M6.43991 7.83726C6.50991 7.82726 6.57991 7.82726 6.64991 7.83726C8.19991 7.78726 9.42991 6.51726 9.42991 4.95726C9.42991 3.35726 8.13991 2.06726 6.53991 2.06726C4.94991 2.06726 3.65991 3.35726 3.65991 4.95726C3.65991 6.51726 4.88991 7.78726 6.43991 7.83726Z" fill="#292D32"/>
<path d="M6.55012 12.9172C6.55012 13.8872 6.76012 14.8072 7.14012 15.6372C5.73012 15.7872 4.26012 15.4872 3.18012 14.7772C1.60012 13.7272 1.60012 12.0172 3.18012 10.9672C4.25012 10.2472 5.76012 9.95724 7.18012 10.1172C6.77012 10.9572 6.55012 11.9072 6.55012 12.9172Z" fill="#292D32"/>
<path d="M12.12 15.9373C12.04 15.9273 11.95 15.9273 11.86 15.9373C10.02 15.8773 8.55005 14.3673 8.55005 12.5073C8.56005 10.6073 10.09 9.06726 12 9.06726C13.9 9.06726 15.44 10.6073 15.44 12.5073C15.43 14.3673 13.97 15.8773 12.12 15.9373Z" fill="#292D32"/>
<path d="M8.87005 18.0073C7.36005 19.0173 7.36005 20.6773 8.87005 21.6773C10.59 22.8273 13.41 22.8273 15.13 21.6773C16.64 20.6673 16.64 19.0073 15.13 18.0073C13.42 16.8573 10.6 16.8573 8.87005 18.0073Z" fill="#292D32"/>
</svg>
