<svg width="24" height="25" viewBox="0 0 24 25" fill="none" xmlns="http://www.w3.org/2000/svg">
<path d="M21.97 2.79655C21.25 1.97655 20.18 1.46655 19 1.46655C17.88 1.46655 16.86 1.92655 16.13 2.67655C15.71 3.10655 15.39 3.62655 15.2 4.20655C15.07 4.60655 15 5.02655 15 5.46655C15 6.21655 15.21 6.92655 15.58 7.52655C15.78 7.86655 16.04 8.17655 16.34 8.43655C17.04 9.07655 17.97 9.46655 19 9.46655C19.44 9.46655 19.86 9.39655 20.25 9.25655C21.17 8.96655 21.94 8.33655 22.42 7.52655C22.63 7.18655 22.79 6.79655 22.88 6.39655C22.96 6.09655 23 5.78655 23 5.46655C23 4.44655 22.61 3.50655 21.97 2.79655ZM20.49 6.19655H19.75V6.97655C19.75 7.38655 19.41 7.72655 19 7.72655C18.59 7.72655 18.25 7.38655 18.25 6.97655V6.19655H17.51C17.1 6.19655 16.76 5.85655 16.76 5.44655C16.76 5.03655 17.1 4.69655 17.51 4.69655H18.25V3.98655C18.25 3.57655 18.59 3.23655 19 3.23655C19.41 3.23655 19.75 3.57655 19.75 3.98655V4.69655H20.49C20.9 4.69655 21.24 5.03655 21.24 5.44655C21.24 5.85655 20.91 6.19655 20.49 6.19655Z" fill="#292D32"/>
<path d="M22 12.4666C22 11.1566 21.75 9.89655 21.28 8.74655C20.97 8.96655 20.62 9.13655 20.25 9.25655C20.14 9.29655 20.03 9.32655 19.91 9.35655C20.29 10.3166 20.5 11.3666 20.5 12.4666C20.5 14.7866 19.56 16.8966 18.04 18.4366C17.75 18.0666 17.38 17.7266 16.94 17.4366C14.23 15.6166 9.79 15.6166 7.06 17.4366C6.62 17.7266 6.26 18.0666 5.96 18.4366C4.44 16.8966 3.5 14.7866 3.5 12.4666C3.5 7.77655 7.31 3.96655 12 3.96655C13.09 3.96655 14.14 4.17655 15.1 4.55655C15.13 4.43655 15.16 4.32655 15.2 4.20655C15.32 3.83655 15.49 3.49655 15.72 3.18655C14.57 2.71655 13.31 2.46655 12 2.46655C6.49 2.46655 2 6.95655 2 12.4666C2 15.3666 3.25 17.9766 5.23 19.8066C5.23 19.8166 5.23 19.8166 5.22 19.8266C5.32 19.9266 5.44 20.0066 5.54 20.0966C5.6 20.1466 5.65 20.1966 5.71 20.2366C5.89 20.3866 6.09 20.5266 6.28 20.6666C6.35 20.7166 6.41 20.7566 6.48 20.8066C6.67 20.9366 6.87 21.0566 7.08 21.1666C7.15 21.2066 7.23 21.2566 7.3 21.2966C7.5 21.4066 7.71 21.5066 7.93 21.5966C8.01 21.6366 8.09 21.6766 8.17 21.7066C8.39 21.7966 8.61 21.8766 8.83 21.9466C8.91 21.9766 8.99 22.0066 9.07 22.0266C9.31 22.0966 9.55 22.1566 9.79 22.2166C9.86 22.2366 9.93 22.2566 10.01 22.2666C10.29 22.3266 10.57 22.3666 10.86 22.3966C10.9 22.3966 10.94 22.4066 10.98 22.4166C11.32 22.4466 11.66 22.4666 12 22.4666C12.34 22.4666 12.68 22.4466 13.01 22.4166C13.05 22.4166 13.09 22.4066 13.13 22.3966C13.42 22.3666 13.7 22.3266 13.98 22.2666C14.05 22.2566 14.12 22.2266 14.2 22.2166C14.44 22.1566 14.69 22.1066 14.92 22.0266C15 21.9966 15.08 21.9666 15.16 21.9466C15.38 21.8666 15.61 21.7966 15.82 21.7066C15.9 21.6766 15.98 21.6366 16.06 21.5966C16.27 21.5066 16.48 21.4066 16.69 21.2966C16.77 21.2566 16.84 21.2066 16.91 21.1666C17.11 21.0466 17.31 20.9366 17.51 20.8066C17.58 20.7666 17.64 20.7166 17.71 20.6666C17.91 20.5266 18.1 20.3866 18.28 20.2366C18.34 20.1866 18.39 20.1366 18.45 20.0966C18.56 20.0066 18.67 19.9166 18.77 19.8266C18.77 19.8166 18.77 19.8166 18.76 19.8066C20.75 17.9766 22 15.3666 22 12.4666Z" fill="#292D32"/>
<path d="M12 7.39661C9.93 7.39661 8.25 9.07661 8.25 11.1466C8.25 13.1766 9.84 14.8266 11.95 14.8866C11.98 14.8866 12.02 14.8866 12.04 14.8866C12.06 14.8866 12.09 14.8866 12.11 14.8866C12.12 14.8866 12.13 14.8866 12.13 14.8866C14.15 14.8166 15.74 13.1766 15.75 11.1466C15.75 9.07661 14.07 7.39661 12 7.39661Z" fill="#292D32"/>
</svg>
