<svg width="24" height="25" viewBox="0 0 24 25" fill="none" xmlns="http://www.w3.org/2000/svg">
<path d="M12 2.46655C9.38 2.46655 7.25 4.59655 7.25 7.21655C7.25 9.78655 9.26 11.8666 11.88 11.9566C11.96 11.9466 12.04 11.9466 12.1 11.9566C12.12 11.9566 12.13 11.9566 12.15 11.9566C12.16 11.9566 12.16 11.9566 12.17 11.9566C14.73 11.8666 16.74 9.78655 16.75 7.21655C16.75 4.59655 14.62 2.46655 12 2.46655Z" fill="#292D32"/>
<path d="M17.08 14.6166C14.29 12.7566 9.73996 12.7566 6.92996 14.6166C5.65996 15.4666 4.95996 16.6166 4.95996 17.8466C4.95996 19.0766 5.65996 20.2166 6.91996 21.0566C8.31996 21.9966 10.16 22.4666 12 22.4666C13.84 22.4666 15.68 21.9966 17.08 21.0566C18.34 20.2066 19.04 19.0666 19.04 17.8266C19.03 16.5966 18.34 15.4566 17.08 14.6166ZM14 18.5966H12.75V19.8466C12.75 20.2566 12.41 20.5966 12 20.5966C11.59 20.5966 11.25 20.2566 11.25 19.8466V18.5966H9.99996C9.58996 18.5966 9.24996 18.2566 9.24996 17.8466C9.24996 17.4366 9.58996 17.0966 9.99996 17.0966H11.25V15.8466C11.25 15.4366 11.59 15.0966 12 15.0966C12.41 15.0966 12.75 15.4366 12.75 15.8466V17.0966H14C14.41 17.0966 14.75 17.4366 14.75 17.8466C14.75 18.2566 14.41 18.5966 14 18.5966Z" fill="#292D32"/>
</svg>
