<svg width="24" height="25" viewBox="0 0 24 25" fill="none" xmlns="http://www.w3.org/2000/svg">
<path d="M22.0001 5.3473V16.7073C22.0001 18.1573 20.9601 18.7673 19.6901 18.0673L17.7601 16.9873C17.6001 16.8973 17.5001 16.7273 17.5001 16.5473V9.2273C17.5001 6.6873 15.4301 4.6173 12.8901 4.6173H8.82008C8.45008 4.6173 8.19008 4.2273 8.36008 3.9073C8.88008 2.9173 9.92008 2.2373 11.1101 2.2373H18.8901C20.6001 2.2373 22.0001 3.6373 22.0001 5.3473Z" fill="#292D32"/>
<path d="M12.89 6.11731H5.11C3.4 6.11731 2 7.51731 2 9.22731V20.5873C2 22.0373 3.04 22.6473 4.31 21.9473L8.24 19.7573C8.66 19.5273 9.34 19.5273 9.76 19.7573L13.69 21.9473C14.96 22.6473 16 22.0373 16 20.5873V9.22731C16 7.51731 14.6 6.11731 12.89 6.11731ZM11 12.9873H9.75V14.2373C9.75 14.6473 9.41 14.9873 9 14.9873C8.59 14.9873 8.25 14.6473 8.25 14.2373V12.9873H7C6.59 12.9873 6.25 12.6473 6.25 12.2373C6.25 11.8273 6.59 11.4873 7 11.4873H8.25V10.2373C8.25 9.82731 8.59 9.48731 9 9.48731C9.41 9.48731 9.75 9.82731 9.75 10.2373V11.4873H11C11.41 11.4873 11.75 11.8273 11.75 12.2373C11.75 12.6473 11.41 12.9873 11 12.9873Z" fill="#292D32"/>
</svg>
