<svg width="35" height="35" viewBox="0 0 35 35" fill="none" xmlns="http://www.w3.org/2000/svg">
<path d="M28.2042 21.1312L26.7459 18.7104C26.4397 18.1708 26.1626 17.15 26.1626 16.552V12.8625C26.1626 9.43538 24.1501 6.47496 21.248 5.08954C20.4897 3.74788 19.0897 2.91663 17.4855 2.91663C15.8959 2.91663 14.4667 3.77704 13.7084 5.13329C10.8647 6.54788 8.89591 9.47913 8.89591 12.8625V16.552C8.89591 17.15 8.61883 18.1708 8.31258 18.6958L6.83966 21.1312C6.25633 22.1083 6.12508 23.1875 6.48966 24.1791C6.83966 25.1562 7.67091 25.9145 8.75008 26.2791C11.5792 27.2416 14.5542 27.7083 17.5292 27.7083C20.5042 27.7083 23.4792 27.2416 26.3084 26.2937C27.3292 25.9583 28.1167 25.1854 28.4959 24.1791C28.8751 23.1729 28.773 22.0645 28.2042 21.1312Z" fill="#292D32"/>
<path d="M21.627 29.1812C21.0145 30.8729 19.3958 32.0833 17.5 32.0833C16.3479 32.0833 15.2104 31.6166 14.4083 30.7854C13.9416 30.3479 13.5916 29.7645 13.3875 29.1666C13.577 29.1958 13.7666 29.2104 13.9708 29.2395C14.3062 29.2833 14.6562 29.327 15.0062 29.3562C15.8375 29.4291 16.6833 29.4729 17.5291 29.4729C18.3604 29.4729 19.1916 29.4291 20.0083 29.3562C20.3145 29.327 20.6208 29.3125 20.9125 29.2687C21.1458 29.2395 21.3791 29.2104 21.627 29.1812Z" fill="#292D32"/>
</svg>
