<svg width="35" height="35" viewBox="0 0 35 35" fill="none" xmlns="http://www.w3.org/2000/svg">
<path d="M29.3126 13.4459C26.673 13.4459 25.5938 11.5792 26.9063 9.28963C27.6647 7.96255 27.2126 6.27088 25.8855 5.51255L23.3626 4.0688C22.2105 3.38338 20.723 3.79172 20.0376 4.9438L19.8772 5.22088C18.5647 7.51047 16.4063 7.51047 15.0792 5.22088L14.9188 4.9438C14.2626 3.79172 12.7751 3.38338 11.623 4.0688L9.10008 5.51255C7.773 6.27088 7.32091 7.97713 8.07925 9.30422C9.40633 11.5792 8.32716 13.4459 5.68758 13.4459C4.17091 13.4459 2.91675 14.6855 2.91675 16.2167V18.7834C2.91675 20.3 4.15633 21.5542 5.68758 21.5542C8.32716 21.5542 9.40633 23.4209 8.07925 25.7105C7.32091 27.0375 7.773 28.7292 9.10008 29.4875L11.623 30.9313C12.7751 31.6167 14.2626 31.2084 14.948 30.0563L15.1084 29.7792C16.4209 27.4896 18.5792 27.4896 19.9063 29.7792L20.0667 30.0563C20.7522 31.2084 22.2397 31.6167 23.3917 30.9313L25.9147 29.4875C27.2417 28.7292 27.6938 27.023 26.9355 25.7105C25.6084 23.4209 26.6876 21.5542 29.3272 21.5542C30.8438 21.5542 32.098 20.3146 32.098 18.7834V16.2167C32.0834 14.7 30.8438 13.4459 29.3126 13.4459ZM17.5001 22.2396C14.8897 22.2396 12.7605 20.1105 12.7605 17.5C12.7605 14.8896 14.8897 12.7605 17.5001 12.7605C20.1105 12.7605 22.2397 14.8896 22.2397 17.5C22.2397 20.1105 20.1105 22.2396 17.5001 22.2396Z" fill="#292D32"/>
</svg>
