<svg width="295" height="375" viewBox="0 0 295 375" fill="none" xmlns="http://www.w3.org/2000/svg">
<path d="M26.584 344.104C26.584 340.776 27.304 337.816 28.744 335.224C30.184 332.6 32.184 330.568 34.744 329.128C37.336 327.656 40.264 326.92 43.528 326.92C47.528 326.92 50.952 327.976 53.8 330.088C56.648 332.2 58.552 335.08 59.512 338.728H50.488C49.816 337.32 48.856 336.248 47.608 335.512C46.392 334.776 45 334.408 43.432 334.408C40.904 334.408 38.856 335.288 37.288 337.048C35.72 338.808 34.936 341.16 34.936 344.104C34.936 347.048 35.72 349.4 37.288 351.16C38.856 352.92 40.904 353.8 43.432 353.8C45 353.8 46.392 353.432 47.608 352.696C48.856 351.96 49.816 350.888 50.488 349.48H59.512C58.552 353.128 56.648 356.008 53.8 358.12C50.952 360.2 47.528 361.24 43.528 361.24C40.264 361.24 37.336 360.52 34.744 359.08C32.184 357.608 30.184 355.576 28.744 352.984C27.304 350.392 26.584 347.432 26.584 344.104ZM62.4265 347.56C62.4265 344.808 62.9385 342.392 63.9625 340.312C65.0185 338.232 66.4425 336.632 68.2345 335.512C70.0265 334.392 72.0265 333.832 74.2345 333.832C76.1225 333.832 77.7705 334.216 79.1785 334.984C80.6185 335.752 81.7225 336.76 82.4905 338.008V334.216H90.6985V361H82.4905V357.208C81.6905 358.456 80.5705 359.464 79.1305 360.232C77.7225 361 76.0745 361.384 74.1865 361.384C72.0105 361.384 70.0265 360.824 68.2345 359.704C66.4425 358.552 65.0185 356.936 63.9625 354.856C62.9385 352.744 62.4265 350.312 62.4265 347.56ZM82.4905 347.608C82.4905 345.56 81.9145 343.944 80.7625 342.76C79.6425 341.576 78.2665 340.984 76.6345 340.984C75.0025 340.984 73.6105 341.576 72.4585 342.76C71.3385 343.912 70.7785 345.512 70.7785 347.56C70.7785 349.608 71.3385 351.24 72.4585 352.456C73.6105 353.64 75.0025 354.232 76.6345 354.232C78.2665 354.232 79.6425 353.64 80.7625 352.456C81.9145 351.272 82.4905 349.656 82.4905 347.608ZM107.053 361.384C104.717 361.384 102.637 360.984 100.813 360.184C98.9886 359.384 97.5486 358.296 96.4926 356.92C95.4366 355.512 94.8446 353.944 94.7166 352.216H102.829C102.925 353.144 103.357 353.896 104.125 354.472C104.893 355.048 105.837 355.336 106.957 355.336C107.981 355.336 108.765 355.144 109.309 354.76C109.885 354.344 110.173 353.816 110.173 353.176C110.173 352.408 109.773 351.848 108.973 351.496C108.173 351.112 106.877 350.696 105.085 350.248C103.165 349.8 101.565 349.336 100.285 348.856C99.0046 348.344 97.9006 347.56 96.9726 346.504C96.0446 345.416 95.5806 343.96 95.5806 342.136C95.5806 340.6 95.9966 339.208 96.8286 337.96C97.6926 336.68 98.9406 335.672 100.573 334.936C102.237 334.2 104.205 333.832 106.477 333.832C109.837 333.832 112.477 334.664 114.397 336.328C116.349 337.992 117.469 340.2 117.757 342.952H110.173C110.045 342.024 109.629 341.288 108.925 340.744C108.253 340.2 107.357 339.928 106.237 339.928C105.277 339.928 104.541 340.12 104.029 340.504C103.517 340.856 103.261 341.352 103.261 341.992C103.261 342.76 103.661 343.336 104.461 343.72C105.293 344.104 106.573 344.488 108.301 344.872C110.285 345.384 111.901 345.896 113.149 346.408C114.397 346.888 115.485 347.688 116.413 348.808C117.373 349.896 117.869 351.368 117.901 353.224C117.901 354.792 117.453 356.2 116.557 357.448C115.693 358.664 114.429 359.624 112.765 360.328C111.133 361.032 109.229 361.384 107.053 361.384ZM147.69 347.176C147.69 347.944 147.642 348.744 147.546 349.576H128.97C129.098 351.24 129.626 352.52 130.554 353.416C131.514 354.28 132.682 354.712 134.058 354.712C136.106 354.712 137.53 353.848 138.33 352.12H147.066C146.618 353.88 145.802 355.464 144.618 356.872C143.466 358.28 142.01 359.384 140.25 360.184C138.49 360.984 136.522 361.384 134.346 361.384C131.722 361.384 129.386 360.824 127.338 359.704C125.29 358.584 123.69 356.984 122.538 354.904C121.386 352.824 120.81 350.392 120.81 347.608C120.81 344.824 121.37 342.392 122.49 340.312C123.642 338.232 125.242 336.632 127.29 335.512C129.338 334.392 131.69 333.832 134.346 333.832C136.938 333.832 139.242 334.376 141.258 335.464C143.274 336.552 144.842 338.104 145.962 340.12C147.114 342.136 147.69 344.488 147.69 347.176ZM139.29 345.016C139.29 343.608 138.81 342.488 137.85 341.656C136.89 340.824 135.69 340.408 134.25 340.408C132.874 340.408 131.706 340.808 130.746 341.608C129.818 342.408 129.242 343.544 129.018 345.016H139.29ZM163.732 361.336C161.268 361.336 159.06 360.936 157.108 360.136C155.156 359.336 153.588 358.152 152.404 356.584C151.252 355.016 150.644 353.128 150.58 350.92H159.316C159.444 352.168 159.876 353.128 160.612 353.8C161.348 354.44 162.308 354.76 163.492 354.76C164.708 354.76 165.668 354.488 166.372 353.944C167.076 353.368 167.428 352.584 167.428 351.592C167.428 350.76 167.14 350.072 166.564 349.528C166.02 348.984 165.332 348.536 164.5 348.184C163.7 347.832 162.548 347.432 161.044 346.984C158.868 346.312 157.092 345.64 155.716 344.968C154.34 344.296 153.156 343.304 152.164 341.992C151.172 340.68 150.676 338.968 150.676 336.856C150.676 333.72 151.812 331.272 154.084 329.512C156.356 327.72 159.316 326.824 162.964 326.824C166.676 326.824 169.668 327.72 171.94 329.512C174.212 331.272 175.428 333.736 175.588 336.904H166.708C166.644 335.816 166.244 334.968 165.508 334.36C164.772 333.72 163.828 333.4 162.676 333.4C161.684 333.4 160.884 333.672 160.276 334.216C159.668 334.728 159.364 335.48 159.364 336.472C159.364 337.56 159.876 338.408 160.9 339.016C161.924 339.624 163.524 340.28 165.7 340.984C167.876 341.72 169.636 342.424 170.98 343.096C172.356 343.768 173.54 344.744 174.532 346.024C175.524 347.304 176.02 348.952 176.02 350.968C176.02 352.888 175.524 354.632 174.532 356.2C173.572 357.768 172.164 359.016 170.308 359.944C168.452 360.872 166.26 361.336 163.732 361.336ZM207.952 334.216L191.152 373.72H182.32L188.464 360.088L177.568 334.216H186.736L192.928 350.968L199.072 334.216H207.952ZM226.76 333.928C229.896 333.928 232.392 334.952 234.248 337C236.136 339.016 237.08 341.8 237.08 345.352V361H228.92V346.456C228.92 344.664 228.456 343.272 227.528 342.28C226.6 341.288 225.352 340.792 223.784 340.792C222.216 340.792 220.968 341.288 220.04 342.28C219.112 343.272 218.648 344.664 218.648 346.456V361H210.44V334.216H218.648V337.768C219.48 336.584 220.6 335.656 222.008 334.984C223.416 334.28 225 333.928 226.76 333.928ZM240.671 347.608C240.671 344.824 241.231 342.392 242.351 340.312C243.503 338.232 245.087 336.632 247.103 335.512C249.151 334.392 251.488 333.832 254.112 333.832C257.472 333.832 260.272 334.712 262.511 336.472C264.784 338.232 266.272 340.712 266.976 343.912H258.24C257.504 341.864 256.08 340.84 253.967 340.84C252.464 340.84 251.263 341.432 250.367 342.616C249.471 343.768 249.023 345.432 249.023 347.608C249.023 349.784 249.471 351.464 250.367 352.648C251.263 353.8 252.464 354.376 253.967 354.376C256.08 354.376 257.504 353.352 258.24 351.304H266.976C266.272 354.44 264.784 356.904 262.511 358.696C260.24 360.488 257.44 361.384 254.112 361.384C251.488 361.384 249.151 360.824 247.103 359.704C245.087 358.584 243.503 356.984 242.351 354.904C241.231 352.824 240.671 350.392 240.671 347.608Z" fill="black"/>
<path d="M266.539 199.859C260.75 213.536 252.552 226.16 242.64 237.205C240.76 239.336 238.8 241.403 236.702 243.315C237.981 239.72 238.641 235.911 239.186 232.139C239.52 228.685 239.69 225.107 238.656 221.749C237.357 217.568 234.547 213.995 231.225 211.215C228.28 208.705 224.892 206.785 221.479 204.997C212.493 200.552 203.359 196.424 194.16 192.447C193.005 191.895 191.688 191.61 190.689 190.789C188.673 188.579 186.652 186.363 184.665 184.127C183.741 182.955 182.263 182.552 180.972 181.943C178.617 180.839 176.241 179.773 174.012 178.422C175.396 181.775 176.426 185.322 176.5 188.975C176.752 192.987 176.03 196.981 176.071 200.994C176.066 204.563 176.078 208.131 176.076 211.703C176.042 216.361 176.229 221.039 175.651 225.675C174.391 235.65 172.063 245.451 169.454 255.147C167.241 263.523 164.498 271.746 161.868 279.995C160.442 279.942 159.019 279.937 157.591 279.959C156.765 268.563 156.765 257.101 155.244 245.763C154.754 241.895 153.46 238.201 152.594 234.414C151.632 230.269 150.415 226.062 150.784 221.763C153.112 218.809 155.568 215.941 157.96 213.032C155.436 208.388 152.776 203.816 150.352 199.115C147.736 199.11 145.116 199.155 142.502 199.081C139.857 203.667 137.259 208.285 134.626 212.879C137.055 215.881 139.538 218.835 141.981 221.833C142.13 224.372 141.656 226.887 141.193 229.374C140.606 232.578 139.769 235.727 139.01 238.892C138.55 240.738 137.907 242.547 137.71 244.451C137.165 249.078 136.714 253.717 136.539 258.375C136.267 265.563 135.728 272.744 135.505 279.937C133.932 279.937 132.359 279.949 130.79 279.913C126.736 267.39 122.965 254.759 120.102 241.904C118.523 234.623 117.005 227.274 116.791 219.8C116.746 213.527 116.804 207.26 116.791 200.989C116.83 196.119 115.844 191.243 116.619 186.392C116.943 183.692 117.916 181.131 118.876 178.607C115.889 180.287 112.721 181.607 109.611 183.03C108.444 183.51 107.818 184.676 106.972 185.543C105.234 187.381 103.632 189.347 101.91 191.192C95.9593 193.724 90.0447 196.357 84.159 199.045C78.7307 201.548 73.2731 204.011 68.0329 206.891C62.906 209.831 57.8473 213.536 55.1526 218.955C52.7857 223.508 52.8798 228.87 53.7553 233.802C54.206 236.706 54.903 239.569 55.8207 242.365C48.4307 234.918 41.9871 226.532 36.5003 217.59C29.2206 205.765 23.8796 192.762 20.6012 179.271C16.9273 164.461 16.1166 149.01 17.7284 133.861C21.0423 101.737 36.627 70.9666 60.818 49.5346C76.4996 35.641 95.5993 25.5778 115.996 20.7274C144.211 14.0434 174.681 16.7746 201.06 28.9114C212.563 34.297 223.348 41.2426 232.848 49.6786C250.8 65.497 264.004 86.4706 271.113 109.28C274.264 119.231 276.079 129.582 276.712 139.995C278.138 160.386 274.483 181.045 266.539 199.859ZM292.807 129.291C291.386 118.304 288.818 107.456 285.028 97.045C277.663 76.453 265.684 57.5314 250.152 42.133C230.474 22.7434 205.192 9.10902 178.168 3.33942C166.399 0.853021 154.346 -0.291779 142.314 0.0634209C117.55 0.817021 92.9891 7.88981 71.6876 20.5618C54.8641 30.433 40.2294 43.9066 28.6791 59.5978C20.559 70.597 14.1126 82.813 9.39418 95.6386C5.20474 106.89 2.3833 118.645 1.0153 130.571C-0.612859 145.148 -0.34694 159.98 2.27962 174.423C4.79914 188.773 9.42345 202.746 15.9121 215.787C26.918 237.815 43.5212 256.983 63.5675 271.254C82.2102 284.435 103.988 293.228 126.629 296.312C136.296 297.579 146.092 298.136 155.827 297.404C170.589 296.459 185.227 293.247 199.005 287.862C223.588 278.202 245.515 261.87 261.76 241.043C280.545 217.17 291.895 187.53 293.81 157.211C294.465 147.903 293.988 138.539 292.807 129.291Z" fill="#100F0D"/>
<path d="M179.765 122.044C178.306 121.518 176.729 121.722 175.232 121.439C174.591 121.043 174.087 120.422 173.367 120.17C172.801 120.05 172.213 120.081 171.639 120.071C165.913 120.098 160.181 120.074 154.453 120.054C152.727 119.75 151.685 121.326 150.617 122.378C148.217 122.397 145.817 122.363 143.417 122.406C142.526 121.446 141.676 120.016 140.185 120.1C133.91 120.088 127.632 120.04 121.357 120.081C120.371 120.033 119.739 120.918 118.993 121.415C117.349 121.382 115.696 121.578 114.142 122.133C113.717 119.987 113.221 117.446 114.771 115.617C116.058 114.088 117.761 112.444 117.401 110.243C116.992 107.68 116.798 105.076 117.07 102.494C117.541 99.0711 118.581 95.7423 120.031 92.6127C123.118 93.5751 126.276 92.3559 129.107 91.1583C131.98 89.9079 135.045 88.7895 138.232 89.0055C142.756 89.2791 147.011 91.0575 151.066 92.9559C155.081 94.8063 159.003 96.8607 163.023 98.7039C167.043 100.622 171.833 101.102 176.043 99.5103C176.549 101.877 176.689 104.325 176.429 106.734C176.355 108.57 175.889 110.524 176.691 112.269C177.392 114.052 179.204 115.096 179.864 116.903C180.514 118.564 179.919 120.345 179.765 122.044ZM170.962 134.884C168.017 138.64 162.351 139.574 158.211 137.337C154.501 135.366 152.221 130.989 152.821 126.82C152.881 125.877 153.375 125.073 153.985 124.377C158.024 124.094 162.077 124.223 166.124 124.178C168.137 124.209 170.17 124.084 172.167 124.358C174.541 127.494 173.312 132.069 170.962 134.884ZM141.381 130.074C140.486 135.292 135.09 139.379 129.795 138.441C124.84 138.011 120.809 133.343 120.871 128.411C120.867 127.017 121.046 125.363 122.168 124.408C125.991 124.048 129.856 124.365 133.693 124.197C135.427 124.134 137.165 124.154 138.901 124.168C139.497 124.19 140.24 124.187 140.571 124.79C141.592 126.323 141.741 128.306 141.381 130.074ZM182.031 125.426C183.553 121.456 184.515 117.287 185.355 113.126C186.509 106.847 185.914 100.079 182.876 94.3983C184.981 92.2335 186.934 89.7903 187.99 86.9271C188.187 86.3919 187.594 86.1303 187.282 85.8399C181.467 81.7575 177.349 75.8439 172.162 71.0775C169.407 68.5335 165.905 66.8703 162.231 66.1959C157.604 65.4399 152.854 65.5191 148.294 64.3263C144.951 63.5367 141.683 62.3464 138.242 62.0632C133.271 61.6504 128.329 63.3111 124.162 65.9367C119.1 69.0999 115.572 74.4567 114.343 80.2599C113.805 83.1015 113.857 86.2647 115.462 88.7727C110.582 92.5335 107.851 98.6487 107.618 104.742C107.271 111.959 109.725 118.878 111.904 125.642C110.987 125.334 110.037 124.953 109.054 125.118C106.898 125.37 105.27 127.329 105.046 129.424C104.845 131.385 105.328 133.343 105.951 135.189C107.271 139.005 109.028 142.674 111.123 146.128C111.84 147.22 112.592 148.494 113.944 148.862C114.907 149.166 116.341 149.042 116.649 147.894C116.898 145.912 116.383 143.942 116.075 141.995C115.685 139.557 113.779 137.68 113.493 135.213C113.218 132.664 113.306 130.084 113.467 127.533C115.018 128.402 116.681 129.081 118.497 129.009C118.786 133.101 121.15 136.986 124.7 139.05C129.96 142.271 137.555 140.91 141.193 135.878C143.401 133.11 144.03 129.479 143.962 126.026C144.77 125.507 145.755 125.591 146.67 125.591C147.912 125.646 149.17 125.642 150.389 125.925C150.38 128.55 150.567 131.272 151.748 133.665C152.653 135.474 153.91 137.147 155.573 138.328C160.234 141.875 167.398 141.551 171.641 137.476C174.08 135.338 175.333 132.194 175.738 129.035C177.308 129.03 178.861 128.661 180.154 127.744C180.322 130.134 180.353 132.539 180.19 134.93C179.962 137.49 177.949 139.451 177.62 141.983C177.37 143.613 177.125 145.254 177.029 146.903C176.974 147.683 177.236 148.691 178.093 148.922C179.273 149.145 180.517 148.672 181.28 147.748C182.386 146.426 183.202 144.894 183.994 143.373C185.636 140.219 187.153 136.979 188.139 133.554C188.725 131.704 188.933 129.638 188.139 127.816C187.179 125.526 184.297 124.394 182.031 125.426Z" fill="#100F0D"/>
<path d="M155.374 150.93C156.339 150.88 157.337 151.093 158.278 150.82C159.012 150.539 158.712 149.685 158.676 149.104C157.148 148.926 155.609 149.037 154.076 149.01C148.03 149.029 141.985 149.005 135.941 149.037C134.65 148.888 134.715 151.093 135.964 150.983C142.433 150.93 148.906 150.973 155.374 150.93Z" fill="#100F0D"/>
<path d="M170.865 160.013C167.114 163.692 163.487 167.492 159.746 171.183C158.702 172.308 157.447 173.338 155.88 173.585C151.692 174.293 147.415 174.336 143.175 174.26C139.816 174.13 136.311 173.974 133.272 172.378C135.305 175.025 137.718 177.351 140.076 179.705C141.726 181.404 144.002 182.6 146.412 182.573C150.41 182.592 154.408 182.564 158.409 182.554C162.568 182.583 166.718 182.285 170.88 182.314C170.899 174.879 170.848 167.446 170.865 160.013Z" fill="#100F0D"/>
<path d="M269.765 176.044C268.306 175.518 266.729 175.722 265.232 175.439C264.591 175.043 264.087 174.421 263.367 174.169C262.801 174.049 262.213 174.08 261.639 174.071C255.913 174.097 250.181 174.073 244.453 174.054C242.727 173.749 241.685 175.326 240.617 176.377C238.217 176.396 235.817 176.363 233.417 176.406C232.526 175.446 231.676 174.016 230.185 174.1C223.91 174.088 217.632 174.04 211.357 174.08C210.371 174.032 209.739 174.918 208.993 175.415C207.349 175.381 205.696 175.578 204.142 176.132C203.717 173.987 203.221 171.445 204.771 169.616C206.058 168.088 207.761 166.444 207.401 164.243C206.992 161.68 206.798 159.076 207.07 156.493C207.541 153.071 208.581 149.742 210.031 146.612C213.118 147.575 216.276 146.356 219.107 145.158C221.98 143.908 225.045 142.789 228.232 143.005C232.756 143.279 237.011 145.057 241.066 146.956C245.081 148.806 249.003 150.86 253.023 152.704C257.043 154.621 261.833 155.101 266.043 153.51C266.549 155.876 266.689 158.324 266.429 160.734C266.355 162.57 265.889 164.524 266.691 166.268C267.392 168.052 269.204 169.096 269.864 170.903C270.514 172.564 269.919 174.344 269.765 176.044ZM260.962 188.884C258.017 192.64 252.351 193.573 248.211 191.336C244.501 189.366 242.221 184.988 242.821 180.82C242.881 179.876 243.375 179.072 243.985 178.376C248.024 178.093 252.077 178.223 256.124 178.177C258.137 178.208 260.17 178.084 262.167 178.357C264.541 181.494 263.312 186.068 260.962 188.884ZM231.381 184.074C230.486 189.292 225.09 193.379 219.795 192.44C214.84 192.011 210.809 187.343 210.871 182.411C210.867 181.017 211.046 179.363 212.168 178.408C215.991 178.048 219.856 178.364 223.693 178.196C225.427 178.134 227.165 178.153 228.901 178.168C229.497 178.189 230.24 178.187 230.571 178.789C231.592 180.323 231.741 182.305 231.381 184.074ZM272.031 179.425C273.553 175.456 274.515 171.287 275.355 167.125C276.509 160.847 275.914 154.079 272.876 148.398C274.981 146.233 276.934 143.79 277.99 140.927C278.187 140.392 277.594 140.13 277.282 139.84C271.467 135.757 267.349 129.844 262.162 125.077C259.407 122.533 255.905 120.87 252.231 120.196C247.604 119.44 242.854 119.519 238.294 118.326C234.951 117.537 231.683 116.346 228.242 116.063C223.271 115.65 218.329 117.311 214.162 119.936C209.1 123.1 205.572 128.456 204.343 134.26C203.805 137.101 203.857 140.264 205.462 142.772C200.582 146.533 197.851 152.648 197.618 158.742C197.271 165.959 199.725 172.878 201.904 179.641C200.987 179.334 200.037 178.952 199.054 179.118C196.898 179.37 195.27 181.328 195.046 183.424C194.845 185.384 195.328 187.343 195.951 189.188C197.271 193.004 199.028 196.674 201.123 200.128C201.84 201.22 202.592 202.494 203.944 202.861C204.907 203.166 206.341 203.041 206.649 201.894C206.898 199.912 206.383 197.941 206.075 195.995C205.685 193.556 203.779 191.68 203.493 189.212C203.218 186.664 203.306 184.084 203.467 181.532C205.018 182.401 206.681 183.08 208.497 183.008C208.786 187.1 211.15 190.986 214.7 193.05C219.96 196.271 227.555 194.91 231.193 189.877C233.401 187.11 234.03 183.479 233.962 180.025C234.77 179.507 235.755 179.591 236.67 179.591C237.912 179.646 239.17 179.641 240.389 179.924C240.38 182.55 240.567 185.272 241.748 187.664C242.653 189.474 243.91 191.147 245.573 192.328C250.234 195.875 257.398 195.551 261.641 191.476C264.08 189.337 265.333 186.193 265.738 183.035C267.308 183.03 268.861 182.66 270.154 181.744C270.322 184.134 270.353 186.539 270.19 188.929C269.962 191.49 267.949 193.451 267.62 195.983C267.37 197.612 267.125 199.254 267.029 200.903C266.974 201.683 267.236 202.691 268.093 202.921C269.273 203.144 270.517 202.672 271.28 201.748C272.386 200.425 273.202 198.894 273.994 197.372C275.636 194.219 277.153 190.979 278.139 187.554C278.725 185.704 278.933 183.637 278.139 181.816C277.179 179.526 274.297 178.393 272.031 179.425Z" fill="#100F0D"/>
<path d="M89.7654 176.044C88.3062 175.518 86.7294 175.722 85.2318 175.439C84.591 175.043 84.087 174.421 83.367 174.169C82.8006 174.049 82.2126 174.08 81.639 174.071C75.9126 174.097 70.1814 174.073 64.4526 174.054C62.727 173.749 61.6854 175.326 60.6174 176.377C58.2174 176.396 55.8169 176.363 53.4174 176.406C52.5256 175.446 51.676 174.016 50.1846 174.1C43.9096 174.088 37.6317 174.04 31.3571 174.08C30.3712 174.032 29.739 174.918 28.9931 175.415C27.3491 175.381 25.6955 175.578 24.1422 176.132C23.7174 173.987 23.2211 171.445 24.771 169.616C26.0584 168.088 27.7609 166.444 27.4009 164.243C26.9925 161.68 26.7981 159.076 27.0702 156.493C27.5406 153.071 28.5812 149.742 30.0308 146.612C33.1177 147.575 36.2761 146.356 39.1072 145.158C41.9805 143.908 45.0448 142.789 48.2325 143.005C52.756 143.279 57.0107 145.057 61.0662 146.956C65.0814 148.806 69.003 150.86 73.023 152.704C77.043 154.621 81.8334 155.101 86.043 153.51C86.5494 155.876 86.6886 158.324 86.4294 160.734C86.355 162.57 85.8894 164.524 86.691 166.268C87.3918 168.052 89.2038 169.096 89.8638 170.903C90.5142 172.564 89.919 174.344 89.7654 176.044ZM80.9622 188.884C78.0174 192.64 72.351 193.573 68.211 191.336C64.5006 189.366 62.2206 184.988 62.8206 180.82C62.8806 179.876 63.375 179.072 63.9846 178.376C68.0238 178.093 72.0774 178.223 76.1238 178.177C78.1374 178.208 80.1702 178.084 82.167 178.357C84.5406 181.494 83.3118 186.068 80.9622 188.884ZM51.3813 184.074C50.4861 189.292 45.0904 193.379 39.7945 192.44C34.84 192.011 30.8089 187.343 30.8708 182.411C30.8675 181.017 31.046 179.363 32.1678 178.408C35.991 178.048 39.8565 178.364 43.6926 178.196C45.4273 178.134 47.1654 178.153 48.9006 178.168C49.4972 178.189 50.2398 178.187 50.5705 178.789C51.592 180.323 51.7413 182.305 51.3813 184.074ZM92.031 179.425C93.5526 175.456 94.515 171.287 95.355 167.125C96.5094 160.847 95.9142 154.079 92.8758 148.398C94.9806 146.233 96.9342 143.79 97.9902 140.927C98.187 140.392 97.5942 140.13 97.2822 139.84C91.467 135.757 87.3486 129.844 82.1622 125.077C79.407 122.533 75.9054 120.87 72.231 120.196C67.6038 119.44 62.8542 119.519 58.2942 118.326C54.9515 117.537 51.6827 116.346 48.2421 116.063C43.2712 115.65 38.3291 117.311 34.1622 119.936C29.1001 123.1 25.5721 128.456 24.3428 134.26C23.8048 137.101 23.8566 140.264 25.4617 142.772C20.5816 146.533 17.8509 152.648 17.6176 158.742C17.2705 165.959 19.7253 172.878 21.9045 179.641C20.9867 179.334 20.0368 178.952 19.0542 179.118C16.8976 179.37 15.2699 181.328 15.0462 183.424C14.8451 185.384 15.3285 187.343 15.951 189.188C17.2705 193.004 19.0283 196.674 21.123 200.128C21.8397 201.22 22.5918 202.494 23.944 202.861C24.9073 203.166 26.3406 203.041 26.6488 201.894C26.8984 199.912 26.3829 197.941 26.0747 195.995C25.6854 193.556 23.7789 191.68 23.4933 189.212C23.2177 186.664 23.3056 184.084 23.4673 181.532C25.0177 182.401 26.6809 183.08 28.4973 183.008C28.7857 187.1 31.1497 190.986 34.7003 193.05C39.9601 196.271 47.5547 194.91 51.1931 189.877C53.4011 187.11 54.0304 183.479 53.9622 180.025C54.7696 179.507 55.7555 179.591 56.6699 179.591C57.9121 179.646 59.1702 179.641 60.3894 179.924C60.3798 182.55 60.567 185.272 61.7478 187.664C62.6526 189.474 63.9102 191.147 65.5734 192.328C70.2342 195.875 77.3982 195.551 81.6414 191.476C84.0798 189.337 85.3326 186.193 85.7382 183.035C87.3078 183.03 88.8606 182.66 90.1542 181.744C90.3222 184.134 90.3534 186.539 90.1902 188.929C89.9622 191.49 87.9486 193.451 87.6198 195.983C87.3702 197.612 87.1254 199.254 87.0294 200.903C86.9742 201.683 87.2358 202.691 88.0926 202.921C89.2734 203.144 90.5166 202.672 91.2798 201.748C92.3862 200.425 93.2022 198.894 93.9942 197.372C95.6358 194.219 97.1526 190.979 98.139 187.554C98.7246 185.704 98.9334 183.637 98.139 181.816C97.179 179.526 94.2966 178.393 92.031 179.425Z" fill="#100F0D"/>
<path d="M245.374 212.93C246.339 212.88 247.337 213.093 248.278 212.82C249.012 212.539 248.712 211.685 248.676 211.104C247.148 210.926 245.609 211.037 244.076 211.01C238.03 211.029 231.985 211.005 225.941 211.037C224.65 210.888 224.715 213.093 225.964 212.983C232.433 212.93 238.906 212.973 245.374 212.93Z" fill="#100F0D"/>
<path d="M65.374 212.93C66.3388 212.88 67.3372 213.093 68.278 212.82C69.0124 212.539 68.7124 211.685 68.6764 211.104C67.1476 210.926 65.6092 211.037 64.0756 211.01C58.03 211.029 51.9854 211.005 45.9412 211.037C44.6505 210.888 44.7153 213.093 45.9638 212.983C52.4332 212.93 58.906 212.973 65.374 212.93Z" fill="#100F0D"/>
</svg>
