<svg width="24" height="25" viewBox="0 0 24 25" fill="none" xmlns="http://www.w3.org/2000/svg">
<path d="M14.35 2.06726H9.65001C8.61001 2.06726 7.76001 2.90726 7.76001 3.94726V4.88726C7.76001 5.92726 8.60001 6.76726 9.64001 6.76726H14.35C15.39 6.76726 16.23 5.92726 16.23 4.88726V3.94726C16.24 2.90726 15.39 2.06726 14.35 2.06726Z" fill="#292D32"/>
<path d="M17.24 4.88724C17.24 6.47724 15.94 7.77724 14.35 7.77724H9.65004C8.06004 7.77724 6.76004 6.47724 6.76004 4.88724C6.76004 4.32724 6.16004 3.97724 5.66004 4.23724C4.25004 4.98724 3.29004 6.47724 3.29004 8.18724V17.5972C3.29004 20.0572 5.30004 22.0672 7.76004 22.0672H16.24C18.7 22.0672 20.71 20.0572 20.71 17.5972V8.18724C20.71 6.47724 19.75 4.98724 18.34 4.23724C17.84 3.97724 17.24 4.32724 17.24 4.88724ZM12.38 17.0172H8.00004C7.59004 17.0172 7.25004 16.6772 7.25004 16.2672C7.25004 15.8572 7.59004 15.5172 8.00004 15.5172H12.38C12.79 15.5172 13.13 15.8572 13.13 16.2672C13.13 16.6772 12.79 17.0172 12.38 17.0172ZM15 13.0172H8.00004C7.59004 13.0172 7.25004 12.6772 7.25004 12.2672C7.25004 11.8572 7.59004 11.5172 8.00004 11.5172H15C15.41 11.5172 15.75 11.8572 15.75 12.2672C15.75 12.6772 15.41 13.0172 15 13.0172Z" fill="#292D32"/>
</svg>
